<svg width="83" height="83" viewBox="0 0 83 83" fill="none" xmlns="http://www.w3.org/2000/svg">
<circle cx="41.5" cy="41.5" r="39.5" stroke="#0057FF" stroke-width="4"/>
<path d="M41.952 58.072C43.7227 58.072 45.248 57.8693 46.528 57.464C47.808 57.0587 48.8533 56.4933 49.664 55.768C50.496 55.0213 51.104 54.1467 51.488 53.144C51.872 52.12 52.064 51 52.064 49.784C52.064 47.416 51.2213 45.5493 49.536 44.184C47.8507 42.7973 45.3227 42.104 41.952 42.104H32.032V58.072H41.952ZM32.032 22.04V37.688H40.224C41.9733 37.688 43.488 37.496 44.768 37.112C46.0693 36.728 47.136 36.1947 47.968 35.512C48.8213 34.8293 49.4507 34.008 49.856 33.048C50.2613 32.0667 50.464 31 50.464 29.848C50.464 27.1387 49.6533 25.1653 48.032 23.928C46.4107 22.6693 43.8933 22.04 40.48 22.04H32.032ZM40.48 17.144C43.296 17.144 45.7173 17.4213 47.744 17.976C49.792 18.5307 51.4667 19.32 52.768 20.344C54.0907 21.368 55.0613 22.6267 55.68 24.12C56.2987 25.592 56.608 27.256 56.608 29.112C56.608 30.2427 56.4267 31.3307 56.064 32.376C55.7227 33.4 55.2 34.36 54.496 35.256C53.792 36.152 52.896 36.9627 51.808 37.688C50.7413 38.392 49.4827 38.968 48.032 39.416C51.4027 40.056 53.9307 41.2613 55.616 43.032C57.3227 44.7813 58.176 47.0853 58.176 49.944C58.176 51.8853 57.8133 53.656 57.088 55.256C56.384 56.856 55.3387 58.232 53.952 59.384C52.5867 60.536 50.9013 61.432 48.896 62.072C46.8907 62.6907 44.608 63 42.048 63H25.856V17.144H40.48Z" fill="#0057FF"/>
</svg>
