<svg width="83" height="83" viewBox="0 0 83 83" fill="none" xmlns="http://www.w3.org/2000/svg">
<circle cx="41.5" cy="41.5" r="39.5" stroke="#F3AE28" stroke-width="4"/>
<path d="M64.6 41.088C64.6 44.5227 64.056 47.648 62.968 50.464C61.88 53.28 60.344 55.6907 58.36 57.696C56.376 59.7013 53.9867 61.2587 51.192 62.368C48.4187 63.456 45.3467 64 41.976 64H24.856V18.144H41.976C45.3467 18.144 48.4187 18.6987 51.192 19.808C53.9867 20.896 56.376 22.4533 58.36 24.48C60.344 26.4853 61.88 28.896 62.968 31.712C64.056 34.528 64.6 37.6533 64.6 41.088ZM58.232 41.088C58.232 38.272 57.848 35.7547 57.08 33.536C56.312 31.3173 55.224 29.44 53.816 27.904C52.408 26.368 50.7013 25.1947 48.696 24.384C46.6907 23.5733 44.4507 23.168 41.976 23.168H31.064V58.976H41.976C44.4507 58.976 46.6907 58.5707 48.696 57.76C50.7013 56.9493 52.408 55.7867 53.816 54.272C55.224 52.736 56.312 50.8587 57.08 48.64C57.848 46.4213 58.232 43.904 58.232 41.088Z" fill="#F3AE28" fill-opacity="0.87"/>
</svg>
