<svg width="83" height="83" viewBox="0 0 83 83" fill="none" xmlns="http://www.w3.org/2000/svg">
<circle cx="41.5" cy="41.5" r="39.5" stroke="#00FF00" stroke-width="4"/>
<path d="M50.208 45.976L43.008 27.32C42.7947 26.7653 42.5707 26.1253 42.336 25.4C42.1013 24.6533 41.8773 23.864 41.664 23.032C41.216 24.76 40.7573 26.2 40.288 27.352L33.088 45.976H50.208ZM63.136 63H58.336C57.7813 63 57.3333 62.8613 56.992 62.584C56.6507 62.3067 56.3947 61.9547 56.224 61.528L51.936 50.456H31.36L27.072 61.528C26.944 61.912 26.6987 62.2533 26.336 62.552C25.9733 62.8507 25.5253 63 24.992 63H20.192L38.528 17.144H44.8L63.136 63Z" fill="#00FF00"/>
</svg>
