<svg width="83" height="83" viewBox="0 0 83 83" fill="none" xmlns="http://www.w3.org/2000/svg">
<circle cx="41.5" cy="41.5" r="39.5" stroke="#FAFF00" stroke-width="4"/>
<path d="M54.048 54.528C54.3893 54.528 54.688 54.6667 54.944 54.944L57.408 57.6C55.5307 59.776 53.248 61.472 50.56 62.688C47.8933 63.904 44.6613 64.512 40.864 64.512C37.5787 64.512 34.592 63.9467 31.904 62.816C29.216 61.664 26.9227 60.064 25.024 58.016C23.1253 55.9467 21.6533 53.472 20.608 50.592C19.5627 47.712 19.04 44.544 19.04 41.088C19.04 37.632 19.584 34.464 20.672 31.584C21.76 28.704 23.2853 26.2293 25.248 24.16C27.232 22.0907 29.6 20.4907 32.352 19.36C35.104 18.208 38.144 17.632 41.472 17.632C44.736 17.632 47.616 18.1547 50.112 19.2C52.608 20.2453 54.8053 21.664 56.704 23.456L54.656 26.304C54.528 26.5173 54.3573 26.6987 54.144 26.848C53.952 26.976 53.6853 27.04 53.344 27.04C52.96 27.04 52.4907 26.8373 51.936 26.432C51.3813 26.0053 50.656 25.536 49.76 25.024C48.864 24.512 47.744 24.0533 46.4 23.648C45.056 23.2213 43.4027 23.008 41.44 23.008C39.072 23.008 36.9067 23.424 34.944 24.256C32.9813 25.0667 31.2853 26.2507 29.856 27.808C28.448 29.3653 27.3493 31.264 26.56 33.504C25.7707 35.744 25.376 38.272 25.376 41.088C25.376 43.9467 25.7813 46.496 26.592 48.736C27.424 50.976 28.544 52.8747 29.952 54.432C31.3813 55.968 33.056 57.1413 34.976 57.952C36.9173 58.7627 39.008 59.168 41.248 59.168C42.6133 59.168 43.84 59.0933 44.928 58.944C46.0373 58.7733 47.0507 58.5173 47.968 58.176C48.9067 57.8347 49.7707 57.408 50.56 56.896C51.3707 56.3627 52.1707 55.7333 52.96 55.008C53.3227 54.688 53.6853 54.528 54.048 54.528Z" fill="#FAFF00"/>
</svg>
